<?xml version="1.0" encoding="UTF-8" standalone="no"?>
<svg
   xmlns:dc="http://purl.org/dc/elements/1.1/"
   xmlns:cc="http://creativecommons.org/ns#"
   xmlns:rdf="http://www.w3.org/1999/02/22-rdf-syntax-ns#"
   xmlns:svg="http://www.w3.org/2000/svg"
   xmlns="http://www.w3.org/2000/svg"
   xmlns:sodipodi="http://sodipodi.sourceforge.net/DTD/sodipodi-0.dtd"
   xmlns:inkscape="http://www.inkscape.org/namespaces/inkscape"
   sodipodi:docname="theme-sprite-inkscape.svg"
   inkscape:version="1.0alpha (1:0.92.0+devel+201905250150+40b9fe8)"
   id="svg8"
   version="1.1"
   viewBox="0 0 52.916666 26.458334"
   height="100"
   width="200">
  <defs
     id="defs2" />
  <sodipodi:namedview
     inkscape:window-maximized="1"
     inkscape:window-y="27"
     inkscape:window-x="0"
     inkscape:window-height="1016"
     inkscape:window-width="1920"
     inkscape:bbox-nodes="true"
     inkscape:bbox-paths="true"
     inkscape:snap-bbox="true"
     inkscape:snap-page="true"
     units="px"
     showgrid="true"
     inkscape:document-rotation="0"
     inkscape:current-layer="layer1"
     inkscape:document-units="px"
     inkscape:cy="34.415585"
     inkscape:cx="39.771713"
     inkscape:zoom="7.1403706"
     inkscape:pageshadow="2"
     inkscape:pageopacity="1"
     borderopacity="1.0"
     bordercolor="#666666"
     pagecolor="#d1ced2"
     id="base">
    <inkscape:grid
       id="grid833"
       type="xygrid" />
  </sodipodi:namedview>
  <metadata
     id="metadata5">
    <rdf:RDF>
      <cc:Work
         rdf:about="">
        <dc:format>image/svg+xml</dc:format>
        <dc:type
           rdf:resource="http://purl.org/dc/dcmitype/StillImage" />
        <dc:title></dc:title>
      </cc:Work>
    </rdf:RDF>
  </metadata>
  <g
     id="layer1"
     inkscape:groupmode="layer"
     inkscape:label="Layer 1">
    <circle
       r="2.9104166"
       cy="3.1750002"
       cx="3.175"
       id="path835"
       style="opacity:1;vector-effect:none;fill:none;stroke:#666666;stroke-width:0.529167;stroke-linejoin:round;stroke-miterlimit:4;stroke-dasharray:none;stroke-opacity:1" />
    <circle
       style="opacity:1;vector-effect:none;fill:none;stroke:#363864;stroke-width:0.529167;stroke-linejoin:round;stroke-miterlimit:4;stroke-dasharray:none;stroke-opacity:1"
       id="circle839"
       cx="3.1750002"
       cy="9.7895832"
       r="2.9104166" />
    <circle
       cy="9.7895832"
       cx="3.1750002"
       id="circle841"
       style="opacity:1;vector-effect:none;fill:#363864;fill-opacity:1;stroke:none;stroke-width:0.529167;stroke-linejoin:round;stroke-miterlimit:4;stroke-dasharray:none"
       r="1.6536459" />
    <rect
       y="0.26458335"
       x="6.8791666"
       height="5.2916665"
       width="5.2916665"
       id="rect843"
       style="opacity:1;vector-effect:none;fill:none;stroke:#666666;stroke-width:0.529167;stroke-linejoin:miter;stroke-miterlimit:4;stroke-dasharray:none;stroke-opacity:1" />
    <rect
       style="opacity:1;vector-effect:none;fill:none;stroke:#363864;stroke-width:0.529167;stroke-linejoin:miter;stroke-miterlimit:4;stroke-dasharray:none;stroke-opacity:1"
       id="rect845"
       width="5.2916665"
       height="5.2916665"
       x="6.8791666"
       y="6.8791666" />
    <rect
       y="7.9374995"
       x="7.9374995"
       height="3.175"
       width="3.175"
       id="rect847"
       style="opacity:1;vector-effect:none;fill:#363864;fill-opacity:1;stroke:none;stroke-width:0.529167;stroke-linejoin:miter;stroke-miterlimit:4;stroke-dasharray:none;stroke-opacity:1" />
    <g
       transform="matrix(0.26458333,0,0,0.26458333,13.229038,0)"
       id="g934"
       style="fill:none">
      <g
         opacity="0.275019"
         id="g917">
        <mask
           id="mask0"
           mask-type="alpha"
           maskUnits="userSpaceOnUse"
           x="0"
           y="0"
           width="28"
           height="27">
          <path
             inkscape:connector-curvature="0"
             fill-rule="evenodd"
             clip-rule="evenodd"
             d="M 4.88281e-4,0 H 27 V 26.9998 H 4.88281e-4 Z"
             fill="white"
             id="path906" />
        </mask>
        <g
           mask="url(#mask0)"
           id="g911">
          <path
             inkscape:connector-curvature="0"
             fill-rule="evenodd"
             clip-rule="evenodd"
             d="m 24.7695,18.2695 c -0.6171,1.4565 -1.5004,2.764 -2.6244,3.8872 -1.1247,1.1232 -2.4346,2.0042 -3.8911,2.619 -1.5081,0.6372 -3.1111,0.9589 -4.762,0.9581 C 11.8396,25.7323 10.2381,25.4083 8.73075,24.7696 7.27429,24.1524 5.96672,23.2691 4.84352,22.1444 3.72032,21.0204 2.83858,19.7113 2.22375,18.2541 1.58732,16.7459 1.26486,15.1437 1.26564,13.4913 1.26718,11.8396 1.59195,10.2382 2.23069,8.73079 2.84784,7.27433 3.73112,5.96599 4.85586,4.84356 5.97984,3.72036 7.28895,2.83939 8.74618,2.22379 10.2543,1.58736 11.8566,1.2649 13.5082,1.26644 c 1.6524,7.7e-4 3.2539,0.32555 4.7613,0.96429 1.4564,0.61714 2.764,1.50043 3.8872,2.6244 1.1224,1.12474 2.0042,2.43386 2.6198,3.89108 0.6364,1.50819 0.9588,3.11039 0.9573,4.76199 -8e-4,1.6517 -0.3255,3.2539 -0.9643,4.7613 z M 25.9429,8.25327 C 25.264,6.64561 24.2912,5.20073 23.0523,3.96027 21.8142,2.71981 20.3708,1.7455 18.764,1.0651 17.1,0.359243 15.3319,0.00129997 13.509,-2.42888e-4 11.6869,-0.00101432 9.91875,0.354614 8.25401,1.05739 6.64558,1.73624 5.20146,2.70901 3.96024,3.94716 2.72055,5.18607 1.74546,6.62941 1.06429,8.2363 0.359208,9.90027 0.00126471,11.6684 4.9328e-4,13.4905 -0.00104958,15.3126 0.354579,17.0807 1.05812,18.7462 c 0.67886,1.6085 1.65009,3.0526 2.88977,4.293 1.23815,1.2405 2.68072,2.2148 4.28838,2.896 1.66474,0.7051 3.43283,1.0638 5.25423,1.0646 1.8221,0.0015 3.5902,-0.3541 5.2557,-1.0577 1.6077,-0.6788 3.0525,-1.6508 4.293,-2.8897 1.2405,-1.239 2.2148,-2.6815 2.896,-4.2884 0.7058,-1.6648 1.0638,-3.4321 1.0653,-5.255 8e-4,-1.8221 -0.3549,-3.59021 -1.0576,-5.25573 z"
             fill="#666666"
             id="path909" />
        </g>
        <path
           inkscape:connector-curvature="0"
           fill-rule="evenodd"
           clip-rule="evenodd"
           d="m 13.5105,10.2317 h -7e-4 c -0.3426,0 -0.6642,0.1334 -0.9072,0.3749 -0.2415,0.2422 -0.3757,0.5647 -0.3757,0.9072 l -0.0062,8.127 c -8e-4,0.7074 0.5747,1.2829 1.2829,1.2837 0.3425,0 0.6642,-0.1335 0.9064,-0.3757 0.2422,-0.2415 0.3757,-0.5639 0.3757,-0.9065 l 0.0069,-8.127 c 0,-0.7074 -0.5747,-1.2828 -1.2821,-1.2836 z"
           fill="#666666"
           id="path913" />
        <path
           inkscape:connector-curvature="0"
           fill-rule="evenodd"
           clip-rule="evenodd"
           d="m 14.5818,6.15306 c -0.2708,-0.28543 -0.6403,-0.43663 -1.07,-0.43663 -0.4127,0 -0.7915,0.15274 -1.0669,0.43123 -0.2715,0.2754 -0.422,0.65108 -0.422,1.05686 0,0.39651 0.1428,0.76371 0.4043,1.03603 0.2677,0.27848 0.6364,0.43199 1.0399,0.43277 h 0.0015 c 0.449,0 0.8486,-0.15738 1.1263,-0.44358 0.26,-0.26922 0.3965,-0.63334 0.3849,-1.02754 -7e-4,-0.40654 -0.1419,-0.77914 -0.398,-1.04914 z"
           fill="#666666"
           id="path915" />
      </g>
    </g>
    <g
       transform="matrix(0.26458333,0,0,0.26458333,22.489583,0)"
       id="g1087"
       style="fill:none">
      <path
         inkscape:connector-curvature="0"
         fill-rule="evenodd"
         clip-rule="evenodd"
         d="M 22.2645,24.664 C 21.3713,25.5547 20.2821,26 18.9975,26 h -8.8572 v -2.8672 c 0.8679,-0.5409 1.4616,-1.1469 1.7808,-1.818 0.3191,-0.6717 0.4787,-1.4966 0.4787,-2.4761 V 17.5522 H 10 v -2.3778 h 2.2717 V 11.706 c 0,-1.87424 0.4553,-3.29361 1.3658,-4.25884 C 14.5479,6.48261 15.9049,6 17.7085,6 c 1.438,0 2.5693,0.32129 3.395,0.96455 0.8251,0.64394 1.4251,1.6783 1.7993,3.10515 L 19.929,10.7272 C 19.7502,10.0094 19.4867,9.48743 19.1378,9.16071 18.789,8.83468 18.3338,8.67132 17.7722,8.67132 c -0.7744,0 -1.3316,0.26774 -1.6718,0.80391 -0.3402,0.53617 -0.5103,1.38687 -0.5103,2.55267 v 3.1465 h 3.6498 v 2.3778 h -3.6498 v 1.2588 c 0,0.9604 -0.1744,1.7813 -0.5233,2.4618 -0.3488,0.6806 -0.9488,1.2818 -1.7992,1.8037 h 4.8491 c 0.8851,0 1.555,-0.2304 2.0101,-0.692 0.4553,-0.4616 0.7553,-1.1307 0.9,-2.0071 L 24,20.9231 c -0.2635,1.6037 -0.8419,2.8509 -1.7355,3.7409 z M 17,0 C 7.61114,0 0,7.61113 0,17 0,26.3888 7.61114,34 17,34 26.3888,34 34,26.3888 34,17 34,7.61113 26.3888,0 17,0 Z"
         fill="white"
         id="path1076" />
    </g>
    <g
       transform="matrix(0.26458333,0,0,0.26458333,13.229167,7.9375)"
       id="g1138"
       style="fill:none">
      <g
         opacity="0.291062"
         id="g1125">
        <path
           inkscape:connector-curvature="0"
           fill-rule="evenodd"
           clip-rule="evenodd"
           d="m 9,29.8556 c -1.55195,0 -2.80995,-1.2429 -2.80995,-2.7764 0,-1.0691 0.61167,-1.9969 1.508,-2.4604 v -1.6047 c 0,-0.7106 0.58276,-1.2863 1.30195,-1.2863 0.35959,0 0.68498,0.144 0.92073,0.3766 0.23547,0.2329 0.38117,0.5544 0.38117,0.9097 v 1.6047 c 0.8964,0.4635 1.5081,1.3913 1.5081,2.4604 0,1.5335 -1.258,2.7764 -2.81,2.7764 z M 0,33.9999 H 18 V 16.2153 H 0 Z"
           fill="#363864"
           id="path1121" />
        <path
           inkscape:connector-curvature="0"
           fill-rule="evenodd"
           clip-rule="evenodd"
           d="M 5.11316,19.3574 0.5,18.3151 0,17.7008 V 8.84021 C 0,6.47892 0.936166,4.25894 2.63602,2.58926 4.33592,0.919545 6.59602,0 9,0 11.404,0 13.6641,0.919545 15.364,2.58926 17.0638,4.25894 18,6.47892 18,8.84021 V 17.2803 H 12.8868 V 8.84021 C 12.8868,6.73506 11.1432,5.02238 9,5.02238 c -2.14321,0 -3.88684,1.71268 -3.88684,3.81783 z"
           fill="#363864"
           id="path1123" />
      </g>
    </g>
  </g>
</svg>
