<?xml version="1.0" encoding="UTF-8" standalone="no"?>
<svg
   xmlns:dc="http://purl.org/dc/elements/1.1/"
   xmlns:cc="http://creativecommons.org/ns#"
   xmlns:rdf="http://www.w3.org/1999/02/22-rdf-syntax-ns#"
   xmlns:svg="http://www.w3.org/2000/svg"
   xmlns="http://www.w3.org/2000/svg"
   width="350"
   height="70"
   viewBox="0 0 92.604164 18.520833"
   version="1.1"
   id="svg8">
  <defs
     id="defs2" />
  <metadata
     id="metadata5">
    <rdf:RDF>
      <cc:Work
         rdf:about="">
        <dc:format>image/svg+xml</dc:format>
        <dc:type
           rdf:resource="http://purl.org/dc/dcmitype/StillImage" />
        <dc:title></dc:title>
      </cc:Work>
    </rdf:RDF>
  </metadata>
  <g
     id="layer1">
    <circle
       style="opacity:1;vector-effect:none;fill:none;stroke:#666666;stroke-width:0.529167;stroke-linejoin:round;stroke-miterlimit:4;stroke-dasharray:none;stroke-opacity:1"
       id="path835"
       cx="3.175"
       cy="3.1750002"
       r="2.9104166" />
    <circle
       r="2.9104166"
       cy="9.7895832"
       cx="3.1750002"
       id="circle839"
       style="opacity:1;vector-effect:none;fill:none;stroke:#363864;stroke-width:0.529167;stroke-linejoin:round;stroke-miterlimit:4;stroke-dasharray:none;stroke-opacity:1" />
    <circle
       r="1.6536459"
       style="opacity:1;vector-effect:none;fill:#363864;fill-opacity:1;stroke:none;stroke-width:0.529167;stroke-linejoin:round;stroke-miterlimit:4;stroke-dasharray:none"
       id="circle841"
       cx="3.1750002"
       cy="9.7895832" />
    <rect
       style="opacity:1;vector-effect:none;fill:none;stroke:#666666;stroke-width:0.529167;stroke-linejoin:miter;stroke-miterlimit:4;stroke-dasharray:none;stroke-opacity:1"
       id="rect843"
       width="5.2916665"
       height="5.2916665"
       x="6.8791666"
       y="0.26458335" />
    <rect
       y="6.8791666"
       x="6.8791666"
       height="5.2916665"
       width="5.2916665"
       id="rect845"
       style="opacity:1;vector-effect:none;fill:none;stroke:#363864;stroke-width:0.529167;stroke-linejoin:miter;stroke-miterlimit:4;stroke-dasharray:none;stroke-opacity:1" />
    <rect
       style="opacity:1;vector-effect:none;fill:#363864;fill-opacity:1;stroke:none;stroke-width:0.529167;stroke-linejoin:miter;stroke-miterlimit:4;stroke-dasharray:none;stroke-opacity:1"
       id="rect847"
       width="3.175"
       height="3.175"
       x="7.9374995"
       y="7.9374995" />
    <g
       style="fill:none"
       id="g934"
       transform="matrix(0.26458333,0,0,0.26458333,13.229038,0)">
      <g
         id="g917"
         opacity="0.275019">
        <mask
           height="27"
           width="28"
           y="0"
           x="0"
           maskUnits="userSpaceOnUse"
           mask-type="alpha"
           id="mask0">
          <path
             id="path906"
             fill="white"
             d="M 4.88281e-4,0 H 27 V 26.9998 H 4.88281e-4 Z"
             clip-rule="evenodd"
             fill-rule="evenodd" />
        </mask>
        <g
           id="g911"
           mask="url(#mask0)">
          <path
             id="path909"
             fill="#666666"
             d="m 24.7695,18.2695 c -0.6171,1.4565 -1.5004,2.764 -2.6244,3.8872 -1.1247,1.1232 -2.4346,2.0042 -3.8911,2.619 -1.5081,0.6372 -3.1111,0.9589 -4.762,0.9581 C 11.8396,25.7323 10.2381,25.4083 8.73075,24.7696 7.27429,24.1524 5.96672,23.2691 4.84352,22.1444 3.72032,21.0204 2.83858,19.7113 2.22375,18.2541 1.58732,16.7459 1.26486,15.1437 1.26564,13.4913 1.26718,11.8396 1.59195,10.2382 2.23069,8.73079 2.84784,7.27433 3.73112,5.96599 4.85586,4.84356 5.97984,3.72036 7.28895,2.83939 8.74618,2.22379 10.2543,1.58736 11.8566,1.2649 13.5082,1.26644 c 1.6524,7.7e-4 3.2539,0.32555 4.7613,0.96429 1.4564,0.61714 2.764,1.50043 3.8872,2.6244 1.1224,1.12474 2.0042,2.43386 2.6198,3.89108 0.6364,1.50819 0.9588,3.11039 0.9573,4.76199 -8e-4,1.6517 -0.3255,3.2539 -0.9643,4.7613 z M 25.9429,8.25327 C 25.264,6.64561 24.2912,5.20073 23.0523,3.96027 21.8142,2.71981 20.3708,1.7455 18.764,1.0651 17.1,0.359243 15.3319,0.00129997 13.509,-2.42888e-4 11.6869,-0.00101432 9.91875,0.354614 8.25401,1.05739 6.64558,1.73624 5.20146,2.70901 3.96024,3.94716 2.72055,5.18607 1.74546,6.62941 1.06429,8.2363 0.359208,9.90027 0.00126471,11.6684 4.9328e-4,13.4905 -0.00104958,15.3126 0.354579,17.0807 1.05812,18.7462 c 0.67886,1.6085 1.65009,3.0526 2.88977,4.293 1.23815,1.2405 2.68072,2.2148 4.28838,2.896 1.66474,0.7051 3.43283,1.0638 5.25423,1.0646 1.8221,0.0015 3.5902,-0.3541 5.2557,-1.0577 1.6077,-0.6788 3.0525,-1.6508 4.293,-2.8897 1.2405,-1.239 2.2148,-2.6815 2.896,-4.2884 0.7058,-1.6648 1.0638,-3.4321 1.0653,-5.255 8e-4,-1.8221 -0.3549,-3.59021 -1.0576,-5.25573 z"
             clip-rule="evenodd"
             fill-rule="evenodd" />
        </g>
        <path
           id="path913"
           fill="#666666"
           d="m 13.5105,10.2317 h -7e-4 c -0.3426,0 -0.6642,0.1334 -0.9072,0.3749 -0.2415,0.2422 -0.3757,0.5647 -0.3757,0.9072 l -0.0062,8.127 c -8e-4,0.7074 0.5747,1.2829 1.2829,1.2837 0.3425,0 0.6642,-0.1335 0.9064,-0.3757 0.2422,-0.2415 0.3757,-0.5639 0.3757,-0.9065 l 0.0069,-8.127 c 0,-0.7074 -0.5747,-1.2828 -1.2821,-1.2836 z"
           clip-rule="evenodd"
           fill-rule="evenodd" />
        <path
           id="path915"
           fill="#666666"
           d="m 14.5818,6.15306 c -0.2708,-0.28543 -0.6403,-0.43663 -1.07,-0.43663 -0.4127,0 -0.7915,0.15274 -1.0669,0.43123 -0.2715,0.2754 -0.422,0.65108 -0.422,1.05686 0,0.39651 0.1428,0.76371 0.4043,1.03603 0.2677,0.27848 0.6364,0.43199 1.0399,0.43277 h 0.0015 c 0.449,0 0.8486,-0.15738 1.1263,-0.44358 0.26,-0.26922 0.3965,-0.63334 0.3849,-1.02754 -7e-4,-0.40654 -0.1419,-0.77914 -0.398,-1.04914 z"
           clip-rule="evenodd"
           fill-rule="evenodd" />
      </g>
    </g>
    <g
       style="fill:none"
       id="g1087"
       transform="matrix(0.26458333,0,0,0.26458333,22.489583,0)">
      <path
         id="path1076"
         fill="white"
         d="M 22.2645,24.664 C 21.3713,25.5547 20.2821,26 18.9975,26 h -8.8572 v -2.8672 c 0.8679,-0.5409 1.4616,-1.1469 1.7808,-1.818 0.3191,-0.6717 0.4787,-1.4966 0.4787,-2.4761 V 17.5522 H 10 v -2.3778 h 2.2717 V 11.706 c 0,-1.87424 0.4553,-3.29361 1.3658,-4.25884 C 14.5479,6.48261 15.9049,6 17.7085,6 c 1.438,0 2.5693,0.32129 3.395,0.96455 0.8251,0.64394 1.4251,1.6783 1.7993,3.10515 L 19.929,10.7272 C 19.7502,10.0094 19.4867,9.48743 19.1378,9.16071 18.789,8.83468 18.3338,8.67132 17.7722,8.67132 c -0.7744,0 -1.3316,0.26774 -1.6718,0.80391 -0.3402,0.53617 -0.5103,1.38687 -0.5103,2.55267 v 3.1465 h 3.6498 v 2.3778 h -3.6498 v 1.2588 c 0,0.9604 -0.1744,1.7813 -0.5233,2.4618 -0.3488,0.6806 -0.9488,1.2818 -1.7992,1.8037 h 4.8491 c 0.8851,0 1.555,-0.2304 2.0101,-0.692 0.4553,-0.4616 0.7553,-1.1307 0.9,-2.0071 L 24,20.9231 c -0.2635,1.6037 -0.8419,2.8509 -1.7355,3.7409 z M 17,0 C 7.61114,0 0,7.61113 0,17 0,26.3888 7.61114,34 17,34 26.3888,34 34,26.3888 34,17 34,7.61113 26.3888,0 17,0 Z"
         clip-rule="evenodd"
         fill-rule="evenodd" />
    </g>
    <g
       style="fill:none"
       id="g1138"
       transform="matrix(0.26458333,0,0,0.26458333,13.229167,7.9375)">
      <g
         id="g1125"
         opacity="0.291062">
        <path
           id="path1121"
           fill="#363864"
           d="m 9,29.8556 c -1.55195,0 -2.80995,-1.2429 -2.80995,-2.7764 0,-1.0691 0.61167,-1.9969 1.508,-2.4604 v -1.6047 c 0,-0.7106 0.58276,-1.2863 1.30195,-1.2863 0.35959,0 0.68498,0.144 0.92073,0.3766 0.23547,0.2329 0.38117,0.5544 0.38117,0.9097 v 1.6047 c 0.8964,0.4635 1.5081,1.3913 1.5081,2.4604 0,1.5335 -1.258,2.7764 -2.81,2.7764 z M 0,33.9999 H 18 V 16.2153 H 0 Z"
           clip-rule="evenodd"
           fill-rule="evenodd" />
        <path
           id="path1123"
           fill="#363864"
           d="M 5.11316,19.3574 0.5,18.3151 0,17.7008 V 8.84021 C 0,6.47892 0.936166,4.25894 2.63602,2.58926 4.33592,0.919545 6.59602,0 9,0 11.404,0 13.6641,0.919545 15.364,2.58926 17.0638,4.25894 18,6.47892 18,8.84021 V 17.2803 H 12.8868 V 8.84021 C 12.8868,6.73506 11.1432,5.02238 9,5.02238 c -2.14321,0 -3.88684,1.71268 -3.88684,3.81783 z"
           clip-rule="evenodd"
           fill-rule="evenodd" />
      </g>
    </g>
    <g
       transform="matrix(0.26458333,0,0,0.26458333,21.166667,9.2604167)"
       id="g890"
       style="fill:none">
      <path
         fill-rule="evenodd"
         clip-rule="evenodd"
         d="m 18.9997,18.2116 c -0.0148,2.0709 -1.7854,3.7441 -3.9674,3.7577 l -5.0128,0.0306 C 7.8445,22.0133 6.04996,20.3724 6.00156,18.3087 6.00052,18.2622 6,18.2156 6,18.1689 6,14.7619 8.91014,12 12.5,12 c 3.5899,0 6.5,2.7619 6.5,6.1689 0,0.0143 0,0.0284 -3e-4,0.0427 z M 13.5,3 C 15.4331,3 17,4.56712 17,6.5 17,8.43315 15.4331,10 13.5,10 11.5671,10 10,8.43315 10,6.5 10,4.56712 11.5671,3 13.5,3 Z M 0,13 C 0,20.1796 5.82017,26 13,26 20.1798,26 26,20.1796 26,13 26,5.82019 20.1798,0 13,0 5.82017,0 0,5.82019 0,13 Z"
         fill="#D6436D"
         id="path879" />
    </g>
    <g
       style="fill:none"
       id="g920"
       transform="matrix(0.26458333,0,0,0.26458333,33.072917,0)">
      <path
         id="path909-3"
         fill="#FFC229"
         d="M 42.9523,53.0046 28.7479,41.0126 V 26.962 L 42.9523,13.8895 Z M 18.6649,41.0126 h 6.4904 V 26.962 H 18.6649 Z M 33.9739,0 C 15.2107,0 0,15.2107 0,33.9733 0,52.7364 15.2107,67.9472 33.9739,67.9472 52.7364,67.9472 67.9472,52.7364 67.9472,33.9733 67.9472,15.2107 52.7364,0 33.9739,0 Z"
         clip-rule="evenodd"
         fill-rule="evenodd" />
    </g>
    <g
       style="fill:none"
       id="g946"
       transform="matrix(0.26458333,0,0,0.26458333,52.916667,0)">
      <path
         id="path935"
         fill="#D6436D"
         d="m 47.9575,37.5696 c -1.5437,0 -2.7951,1.2513 -2.7951,2.795 0,1.5438 1.2514,2.7951 2.7951,2.7951 1.5438,0 2.7951,-1.2513 2.7951,-2.7951 0,-1.5437 -1.2513,-2.795 -2.7951,-2.795 z m 0,0 c -1.5437,0 -2.7951,1.2513 -2.7951,2.795 0,1.5438 1.2514,2.7951 2.7951,2.7951 1.5438,0 2.7951,-1.2513 2.7951,-2.7951 0,-1.5437 -1.2513,-2.795 -2.7951,-2.795 z m 0,0 c -1.5437,0 -2.7951,1.2513 -2.7951,2.795 0,1.5438 1.2514,2.7951 2.7951,2.7951 1.5438,0 2.7951,-1.2513 2.7951,-2.7951 0,-1.5437 -1.2513,-2.795 -2.7951,-2.795 z m 2.3153,8.699 c -0.8284,5.5473 -5.6256,9.8158 -11.3997,9.8158 -6.3563,0 -11.5269,-5.1712 -11.5269,-11.5268 V 40.4704 C 22.0847,39.3449 18.128,34.6595 18.128,29.0673 v -14.805 h 7.3975 v 5.1525 h -2.245 v 9.6525 c 0,3.5887 2.9195,6.5082 6.5081,6.5082 3.5888,0 6.5083,-2.9195 6.5083,-6.5082 v -9.6525 h -2.2451 v -5.1525 h 7.3975 v 14.805 c 0,5.5922 -3.9567,10.2776 -9.2183,11.4031 v 4.0872 c 0,3.6622 2.9798,6.642 6.6421,6.642 3.1196,0 5.7433,-2.1621 6.4527,-5.0662 -2.1868,-1.001 -3.7099,-3.2099 -3.7099,-5.7688 0,-3.4969 2.8446,-6.3415 6.3416,-6.3415 3.497,0 6.3416,2.8446 6.3416,6.3415 0,2.6807 -1.6709,4.9779 -4.0263,5.904 z M 0,33.9997 C 0,52.7774 15.2226,68 33.9997,68 52.7774,68 68,52.7774 68,33.9997 68,15.2226 52.7774,0 33.9997,0 15.2226,0 0,15.2226 0,33.9997 Z m 47.9575,3.5699 c -1.5437,0 -2.7951,1.2513 -2.7951,2.795 0,1.5438 1.2514,2.7951 2.7951,2.7951 1.5438,0 2.7951,-1.2513 2.7951,-2.7951 0,-1.5437 -1.2513,-2.795 -2.7951,-2.795 z m 0,0 c -1.5437,0 -2.7951,1.2513 -2.7951,2.795 0,1.5438 1.2514,2.7951 2.7951,2.7951 1.5438,0 2.7951,-1.2513 2.7951,-2.7951 0,-1.5437 -1.2513,-2.795 -2.7951,-2.795 z m 0,0 c -1.5437,0 -2.7951,1.2513 -2.7951,2.795 0,1.5438 1.2514,2.7951 2.7951,2.7951 1.5438,0 2.7951,-1.2513 2.7951,-2.7951 0,-1.5437 -1.2513,-2.795 -2.7951,-2.795 z m 0,0 c -1.5437,0 -2.7951,1.2513 -2.7951,2.795 0,1.5438 1.2514,2.7951 2.7951,2.7951 1.5438,0 2.7951,-1.2513 2.7951,-2.7951 0,-1.5437 -1.2513,-2.795 -2.7951,-2.795 z"
         clip-rule="evenodd"
         fill-rule="evenodd" />
    </g>
    <g
       transform="matrix(0.26458333,0,0,0.26458333,72.760415,-0.01750539)"
       id="g914"
       style="fill:none">
      <path
         fill-rule="evenodd"
         clip-rule="evenodd"
         d="m 36.5834,31.1297 c 0,-2.5694 -2.0906,-4.6599 -4.66,-4.6599 v -3.9682 c 4.7572,0 8.6282,3.8704 8.6282,8.6281 z m -4.66,-11.6763 c -6.4489,0 -11.6763,5.2274 -11.6763,11.6763 0,6.449 5.2274,11.6764 11.6763,11.6764 6.449,0 11.6764,-5.2274 11.6764,-11.6764 0,-6.4489 -5.2274,-11.6763 -11.6764,-11.6763 z"
         fill="#363864"
         id="path894" />
      <g
         mask="url(#mask0-3)"
         id="g901">
        <path
           fill-rule="evenodd"
           clip-rule="evenodd"
           d="m 49.876,51.6062 c -0.7619,0 -1.5231,-0.2904 -2.1044,-0.8717 l -5.4021,-5.402 c -1.1064,0.8154 -2.3048,1.498 -3.5826,2.0383 -2.1772,0.9206 -4.4866,1.3875 -6.8636,1.3875 -2.3769,0 -4.6864,-0.4669 -6.8636,-1.3875 -2.0998,-0.8882 -3.9847,-2.1587 -5.6017,-3.7757 -1.6171,-1.6171 -2.8876,-3.5019 -3.7758,-5.6018 -0.9206,-2.1772 -1.3875,-4.4867 -1.3875,-6.8636 0,-2.3769 0.4669,-4.6864 1.3875,-6.8636 0.8882,-2.0998 2.1587,-3.9847 3.7758,-5.6018 1.617,-1.617 3.5019,-2.8875 5.6017,-3.7757 2.1772,-0.9206 4.4867,-1.3875 6.8636,-1.3875 2.377,0 4.6864,0.4669 6.8636,1.3875 2.0999,0.8882 3.9848,2.1587 5.6018,3.7757 1.617,1.6171 2.8875,3.502 3.7757,5.6018 0.9206,2.1772 1.3875,4.4867 1.3875,6.8636 0,2.3769 -0.4669,4.6864 -1.3875,6.8636 -0.4557,1.0767 -1.0112,2.0972 -1.6627,3.0535 l 5.4788,5.4788 c 1.162,1.162 1.162,3.0469 0,4.2089 -0.5814,0.5813 -1.3426,0.8717 -2.1045,0.8717 z M 0,33.67 C 0,52.2285 15.0447,67.2738 33.6038,67.2738 52.163,67.2738 67.2077,52.2285 67.2077,33.67 67.2077,15.1108 52.163,0.0661621 33.6038,0.0661621 15.0447,0.0661621 0,15.1108 0,33.67 Z"
           fill="#363864"
           id="path899" />
      </g>
    </g>
  </g>
</svg>
